%TF.GenerationSoftware,KiCad,Pcbnew,10.0.0*%
%TF.CreationDate,2026-04-02T18:26:56-05:00*%
%TF.ProjectId,KiCad_PCB_Example_x,4b694361-645f-4504-9342-5f4578616d70,rev?*%
%TF.SameCoordinates,Original*%
%TF.FileFunction,Copper,L2,Bot*%
%TF.FilePolarity,Positive*%
%FSLAX46Y46*%
G04 Gerber Fmt 4.6, Leading zero omitted, Abs format (unit mm)*
G04 Created by KiCad (PCBNEW 10.0.0) date 2026-04-02 18:26:56*
%MOMM*%
%LPD*%
G01*
G04 APERTURE LIST*
%TA.AperFunction,ComponentPad*%
%ADD10R,1.800000X1.800000*%
%TD*%
%TA.AperFunction,ComponentPad*%
%ADD11C,1.800000*%
%TD*%
%TA.AperFunction,ComponentPad*%
%ADD12C,1.600000*%
%TD*%
%TA.AperFunction,SMDPad,CuDef*%
%ADD13R,2.540000X3.510000*%
%TD*%
%TA.AperFunction,ViaPad*%
%ADD14C,0.600000*%
%TD*%
%TA.AperFunction,Conductor*%
%ADD15C,0.200000*%
%TD*%
G04 APERTURE END LIST*
D10*
%TO.P,D1,1,K_1*%
%TO.N,GND*%
X84000000Y-90000000D03*
D11*
%TO.P,D1,2,A_2*%
%TO.N,Net-(D1-A)*%
X84000000Y-92540000D03*
%TD*%
D12*
%TO.P,R3,1*%
%TO.N,VCC*%
X113000000Y-93000000D03*
%TO.P,R3,2*%
%TO.N,Net-(D1-A)*%
X100300000Y-93000000D03*
%TD*%
D13*
%TO.P,BT1,1,+_1*%
%TO.N,VCC*%
X113360000Y-66000000D03*
%TO.P,BT1,2,-_2*%
%TO.N,GND*%
X84000000Y-66000000D03*
%TD*%
D14*
%TO.N,VCC*%
X113000000Y-79000000D03*
%TD*%
%TO.N,VCC*%
D15*
X113360000Y-78640000D02*
X113000000Y-79000000D01*
X113360000Y-66000000D02*
X113360000Y-78640000D01*
%TO.N,GND*%
X84000000Y-66000000D02*
X84000000Y-90000000D01*
%TD*%
%TA.AperFunction,Conductor*%
%TO.N,GND*%
G36*
X119392435Y-50547093D02*
G01*
X119438190Y-50599897D01*
X119449396Y-50651408D01*
X119449396Y-99414401D01*
X119429711Y-99481440D01*
X119376907Y-99527195D01*
X119325396Y-99538401D01*
X79924720Y-99538401D01*
X79857681Y-99518716D01*
X79811926Y-99465912D01*
X79800720Y-99414401D01*
X79800720Y-92429778D01*
X82599500Y-92429778D01*
X82599500Y-92650221D01*
X82633985Y-92867952D01*
X82702103Y-93077603D01*
X82702104Y-93077606D01*
X82802187Y-93274025D01*
X82931752Y-93452358D01*
X82931756Y-93452363D01*
X83087636Y-93608243D01*
X83087641Y-93608247D01*
X83188618Y-93681610D01*
X83265978Y-93737815D01*
X83394375Y-93803237D01*
X83462393Y-93837895D01*
X83462396Y-93837896D01*
X83567221Y-93871955D01*
X83672049Y-93906015D01*
X83889778Y-93940500D01*
X83889779Y-93940500D01*
X84110221Y-93940500D01*
X84110222Y-93940500D01*
X84327951Y-93906015D01*
X84537606Y-93837895D01*
X84734022Y-93737815D01*
X84912365Y-93608242D01*
X85068242Y-93452365D01*
X85197815Y-93274022D01*
X85297895Y-93077606D01*
X85356366Y-92897648D01*
X98999500Y-92897648D01*
X98999500Y-93102351D01*
X99031522Y-93304534D01*
X99094781Y-93499223D01*
X99187715Y-93681613D01*
X99308028Y-93847213D01*
X99452786Y-93991971D01*
X99607749Y-94104556D01*
X99618390Y-94112287D01*
X99734607Y-94171503D01*
X99800776Y-94205218D01*
X99800778Y-94205218D01*
X99800781Y-94205220D01*
X99905137Y-94239127D01*
X99995465Y-94268477D01*
X100096557Y-94284488D01*
X100197648Y-94300500D01*
X100197649Y-94300500D01*
X100402351Y-94300500D01*
X100402352Y-94300500D01*
X100604534Y-94268477D01*
X100799219Y-94205220D01*
X100981610Y-94112287D01*
X101074590Y-94044732D01*
X101147213Y-93991971D01*
X101147215Y-93991968D01*
X101147219Y-93991966D01*
X101291966Y-93847219D01*
X101291968Y-93847215D01*
X101291971Y-93847213D01*
X101371454Y-93737812D01*
X101412287Y-93681610D01*
X101505220Y-93499219D01*
X101568477Y-93304534D01*
X101600500Y-93102352D01*
X101600500Y-92897648D01*
X111699500Y-92897648D01*
X111699500Y-93102351D01*
X111731522Y-93304534D01*
X111794781Y-93499223D01*
X111887715Y-93681613D01*
X112008028Y-93847213D01*
X112152786Y-93991971D01*
X112307749Y-94104556D01*
X112318390Y-94112287D01*
X112434607Y-94171503D01*
X112500776Y-94205218D01*
X112500778Y-94205218D01*
X112500781Y-94205220D01*
X112605137Y-94239127D01*
X112695465Y-94268477D01*
X112796557Y-94284488D01*
X112897648Y-94300500D01*
X112897649Y-94300500D01*
X113102351Y-94300500D01*
X113102352Y-94300500D01*
X113304534Y-94268477D01*
X113499219Y-94205220D01*
X113681610Y-94112287D01*
X113774590Y-94044732D01*
X113847213Y-93991971D01*
X113847215Y-93991968D01*
X113847219Y-93991966D01*
X113991966Y-93847219D01*
X113991968Y-93847215D01*
X113991971Y-93847213D01*
X114071454Y-93737812D01*
X114112287Y-93681610D01*
X114205220Y-93499219D01*
X114268477Y-93304534D01*
X114300500Y-93102352D01*
X114300500Y-92897648D01*
X114268477Y-92695466D01*
X114205220Y-92500781D01*
X114205218Y-92500778D01*
X114205218Y-92500776D01*
X114169042Y-92429778D01*
X114112287Y-92318390D01*
X114104556Y-92307749D01*
X113991971Y-92152786D01*
X113847213Y-92008028D01*
X113681613Y-91887715D01*
X113681612Y-91887714D01*
X113681610Y-91887713D01*
X113624653Y-91858691D01*
X113499223Y-91794781D01*
X113304534Y-91731522D01*
X113129995Y-91703878D01*
X113102352Y-91699500D01*
X112897648Y-91699500D01*
X112873329Y-91703351D01*
X112695465Y-91731522D01*
X112500776Y-91794781D01*
X112318386Y-91887715D01*
X112152786Y-92008028D01*
X112008028Y-92152786D01*
X111887715Y-92318386D01*
X111794781Y-92500776D01*
X111731522Y-92695465D01*
X111699500Y-92897648D01*
X101600500Y-92897648D01*
X101568477Y-92695466D01*
X101505220Y-92500781D01*
X101505218Y-92500778D01*
X101505218Y-92500776D01*
X101469042Y-92429778D01*
X101412287Y-92318390D01*
X101404556Y-92307749D01*
X101291971Y-92152786D01*
X101147213Y-92008028D01*
X100981613Y-91887715D01*
X100981612Y-91887714D01*
X100981610Y-91887713D01*
X100924653Y-91858691D01*
X100799223Y-91794781D01*
X100604534Y-91731522D01*
X100429995Y-91703878D01*
X100402352Y-91699500D01*
X100197648Y-91699500D01*
X100173329Y-91703351D01*
X99995465Y-91731522D01*
X99800776Y-91794781D01*
X99618386Y-91887715D01*
X99452786Y-92008028D01*
X99308028Y-92152786D01*
X99187715Y-92318386D01*
X99094781Y-92500776D01*
X99031522Y-92695465D01*
X98999500Y-92897648D01*
X85356366Y-92897648D01*
X85366015Y-92867951D01*
X85400500Y-92650222D01*
X85400500Y-92429778D01*
X85366015Y-92212049D01*
X85297895Y-92002394D01*
X85297895Y-92002393D01*
X85263237Y-91934375D01*
X85197815Y-91805978D01*
X85120455Y-91699500D01*
X85068247Y-91627641D01*
X85068243Y-91627636D01*
X85017683Y-91577076D01*
X84984198Y-91515753D01*
X84989182Y-91446061D01*
X85031054Y-91390128D01*
X85062031Y-91373213D01*
X85142086Y-91343354D01*
X85142093Y-91343350D01*
X85257187Y-91257190D01*
X85257190Y-91257187D01*
X85343350Y-91142093D01*
X85343354Y-91142086D01*
X85393596Y-91007379D01*
X85393598Y-91007372D01*
X85399999Y-90947844D01*
X85400000Y-90947827D01*
X85400000Y-90250000D01*
X84375278Y-90250000D01*
X84419333Y-90173694D01*
X84450000Y-90059244D01*
X84450000Y-89940756D01*
X84419333Y-89826306D01*
X84375278Y-89750000D01*
X85400000Y-89750000D01*
X85400000Y-89052172D01*
X85399999Y-89052155D01*
X85393598Y-88992627D01*
X85393596Y-88992620D01*
X85343354Y-88857913D01*
X85343350Y-88857906D01*
X85257190Y-88742812D01*
X85257187Y-88742809D01*
X85142093Y-88656649D01*
X85142086Y-88656645D01*
X85007379Y-88606403D01*
X85007372Y-88606401D01*
X84947844Y-88600000D01*
X84250000Y-88600000D01*
X84250000Y-89624722D01*
X84173694Y-89580667D01*
X84059244Y-89550000D01*
X83940756Y-89550000D01*
X83826306Y-89580667D01*
X83750000Y-89624722D01*
X83750000Y-88600000D01*
X83052155Y-88600000D01*
X82992627Y-88606401D01*
X82992620Y-88606403D01*
X82857913Y-88656645D01*
X82857906Y-88656649D01*
X82742812Y-88742809D01*
X82742809Y-88742812D01*
X82656649Y-88857906D01*
X82656645Y-88857913D01*
X82606403Y-88992620D01*
X82606401Y-88992627D01*
X82600000Y-89052155D01*
X82600000Y-89750000D01*
X83624722Y-89750000D01*
X83580667Y-89826306D01*
X83550000Y-89940756D01*
X83550000Y-90059244D01*
X83580667Y-90173694D01*
X83624722Y-90250000D01*
X82600000Y-90250000D01*
X82600000Y-90947844D01*
X82606401Y-91007372D01*
X82606403Y-91007379D01*
X82656645Y-91142086D01*
X82656649Y-91142093D01*
X82742809Y-91257187D01*
X82742812Y-91257190D01*
X82857906Y-91343350D01*
X82857913Y-91343354D01*
X82937968Y-91373213D01*
X82993902Y-91415084D01*
X83018319Y-91480549D01*
X83003467Y-91548822D01*
X82982317Y-91577075D01*
X82931756Y-91627636D01*
X82931752Y-91627641D01*
X82802187Y-91805974D01*
X82702104Y-92002393D01*
X82702103Y-92002396D01*
X82633985Y-92212047D01*
X82599500Y-92429778D01*
X79800720Y-92429778D01*
X79800720Y-67802844D01*
X82230000Y-67802844D01*
X82236401Y-67862372D01*
X82236403Y-67862379D01*
X82286645Y-67997086D01*
X82286649Y-67997093D01*
X82372809Y-68112187D01*
X82372812Y-68112190D01*
X82487906Y-68198350D01*
X82487913Y-68198354D01*
X82622620Y-68248596D01*
X82622627Y-68248598D01*
X82682155Y-68254999D01*
X82682172Y-68255000D01*
X83750000Y-68255000D01*
X84250000Y-68255000D01*
X85317828Y-68255000D01*
X85317844Y-68254999D01*
X85377372Y-68248598D01*
X85377379Y-68248596D01*
X85512086Y-68198354D01*
X85512093Y-68198350D01*
X85627187Y-68112190D01*
X85627190Y-68112187D01*
X85713350Y-67997093D01*
X85713354Y-67997086D01*
X85763596Y-67862379D01*
X85763598Y-67862372D01*
X85769999Y-67802844D01*
X85770000Y-67802827D01*
X85770000Y-66250000D01*
X84250000Y-66250000D01*
X84250000Y-68255000D01*
X83750000Y-68255000D01*
X83750000Y-66250000D01*
X82230000Y-66250000D01*
X82230000Y-67802844D01*
X79800720Y-67802844D01*
X79800720Y-64197155D01*
X82230000Y-64197155D01*
X82230000Y-65750000D01*
X83750000Y-65750000D01*
X84250000Y-65750000D01*
X85770000Y-65750000D01*
X85770000Y-64197164D01*
X85769997Y-64197135D01*
X111589500Y-64197135D01*
X111589500Y-67802870D01*
X111589501Y-67802876D01*
X111595908Y-67862483D01*
X111646202Y-67997328D01*
X111646206Y-67997335D01*
X111732452Y-68112544D01*
X111732455Y-68112547D01*
X111847664Y-68198793D01*
X111847671Y-68198797D01*
X111892618Y-68215561D01*
X111982517Y-68249091D01*
X112042127Y-68255500D01*
X112635500Y-68255499D01*
X112702539Y-68275183D01*
X112748294Y-68327987D01*
X112759500Y-68379499D01*
X112759500Y-78150308D01*
X112739815Y-78217347D01*
X112687011Y-78263102D01*
X112682954Y-78264869D01*
X112620821Y-78290606D01*
X112620814Y-78290609D01*
X112489711Y-78378210D01*
X112489707Y-78378213D01*
X112378213Y-78489707D01*
X112378210Y-78489711D01*
X112290609Y-78620814D01*
X112290602Y-78620827D01*
X112230264Y-78766498D01*
X112230261Y-78766510D01*
X112199500Y-78921153D01*
X112199500Y-79078846D01*
X112230261Y-79233489D01*
X112230264Y-79233501D01*
X112290602Y-79379172D01*
X112290609Y-79379185D01*
X112378210Y-79510288D01*
X112378213Y-79510292D01*
X112489707Y-79621786D01*
X112489711Y-79621789D01*
X112620814Y-79709390D01*
X112620827Y-79709397D01*
X112766498Y-79769735D01*
X112766503Y-79769737D01*
X112921153Y-79800499D01*
X112921156Y-79800500D01*
X112921158Y-79800500D01*
X113078844Y-79800500D01*
X113078845Y-79800499D01*
X113233497Y-79769737D01*
X113379179Y-79709394D01*
X113510289Y-79621789D01*
X113621789Y-79510289D01*
X113709394Y-79379179D01*
X113769737Y-79233497D01*
X113800500Y-79078842D01*
X113800500Y-79078840D01*
X113800637Y-79078152D01*
X113833021Y-79016241D01*
X113834519Y-79014716D01*
X113840520Y-79008716D01*
X113891074Y-78921153D01*
X113891195Y-78920944D01*
X113919575Y-78871788D01*
X113919574Y-78871788D01*
X113919577Y-78871785D01*
X113960501Y-78719057D01*
X113960501Y-78560943D01*
X113960501Y-78553348D01*
X113960500Y-78553330D01*
X113960500Y-68379499D01*
X113980185Y-68312460D01*
X114032989Y-68266705D01*
X114084500Y-68255499D01*
X114677871Y-68255499D01*
X114677872Y-68255499D01*
X114737483Y-68249091D01*
X114872331Y-68198796D01*
X114987546Y-68112546D01*
X115073796Y-67997331D01*
X115124091Y-67862483D01*
X115130500Y-67802873D01*
X115130499Y-64197128D01*
X115124091Y-64137517D01*
X115073884Y-64002906D01*
X115073797Y-64002671D01*
X115073793Y-64002664D01*
X114987547Y-63887455D01*
X114987544Y-63887452D01*
X114872335Y-63801206D01*
X114872328Y-63801202D01*
X114737482Y-63750908D01*
X114737483Y-63750908D01*
X114677883Y-63744501D01*
X114677881Y-63744500D01*
X114677873Y-63744500D01*
X114677864Y-63744500D01*
X112042129Y-63744500D01*
X112042123Y-63744501D01*
X111982516Y-63750908D01*
X111847671Y-63801202D01*
X111847664Y-63801206D01*
X111732455Y-63887452D01*
X111732452Y-63887455D01*
X111646206Y-64002664D01*
X111646202Y-64002671D01*
X111595908Y-64137517D01*
X111589501Y-64197116D01*
X111589501Y-64197123D01*
X111589500Y-64197135D01*
X85769997Y-64197135D01*
X85763598Y-64137627D01*
X85763596Y-64137620D01*
X85713354Y-64002913D01*
X85713350Y-64002906D01*
X85627190Y-63887812D01*
X85627187Y-63887809D01*
X85512093Y-63801649D01*
X85512086Y-63801645D01*
X85377379Y-63751403D01*
X85377372Y-63751401D01*
X85317844Y-63745000D01*
X84250000Y-63745000D01*
X84250000Y-65750000D01*
X83750000Y-65750000D01*
X83750000Y-63745000D01*
X82682155Y-63745000D01*
X82622627Y-63751401D01*
X82622620Y-63751403D01*
X82487913Y-63801645D01*
X82487906Y-63801649D01*
X82372812Y-63887809D01*
X82372809Y-63887812D01*
X82286649Y-64002906D01*
X82286645Y-64002913D01*
X82236403Y-64137620D01*
X82236401Y-64137627D01*
X82230000Y-64197155D01*
X79800720Y-64197155D01*
X79800720Y-50651408D01*
X79820405Y-50584369D01*
X79873209Y-50538614D01*
X79924720Y-50527408D01*
X119325396Y-50527408D01*
X119392435Y-50547093D01*
G37*
%TD.AperFunction*%
%TD*%
M02*
