%TF.GenerationSoftware,KiCad,Pcbnew,10.0.0*%
%TF.CreationDate,2026-04-02T18:26:56-05:00*%
%TF.ProjectId,KiCad_PCB_Example_x,4b694361-645f-4504-9342-5f4578616d70,rev?*%
%TF.SameCoordinates,Original*%
%TF.FileFunction,Legend,Bot*%
%TF.FilePolarity,Positive*%
%FSLAX46Y46*%
G04 Gerber Fmt 4.6, Leading zero omitted, Abs format (unit mm)*
G04 Created by KiCad (PCBNEW 10.0.0) date 2026-04-02 18:26:56*
%MOMM*%
%LPD*%
G01*
G04 APERTURE LIST*
%ADD10C,0.150000*%
%ADD11C,0.120000*%
G04 APERTURE END LIST*
D10*
X99465714Y-73551009D02*
X99322857Y-73598628D01*
X99322857Y-73598628D02*
X99275238Y-73646247D01*
X99275238Y-73646247D02*
X99227619Y-73741485D01*
X99227619Y-73741485D02*
X99227619Y-73884342D01*
X99227619Y-73884342D02*
X99275238Y-73979580D01*
X99275238Y-73979580D02*
X99322857Y-74027200D01*
X99322857Y-74027200D02*
X99418095Y-74074819D01*
X99418095Y-74074819D02*
X99799047Y-74074819D01*
X99799047Y-74074819D02*
X99799047Y-73074819D01*
X99799047Y-73074819D02*
X99465714Y-73074819D01*
X99465714Y-73074819D02*
X99370476Y-73122438D01*
X99370476Y-73122438D02*
X99322857Y-73170057D01*
X99322857Y-73170057D02*
X99275238Y-73265295D01*
X99275238Y-73265295D02*
X99275238Y-73360533D01*
X99275238Y-73360533D02*
X99322857Y-73455771D01*
X99322857Y-73455771D02*
X99370476Y-73503390D01*
X99370476Y-73503390D02*
X99465714Y-73551009D01*
X99465714Y-73551009D02*
X99799047Y-73551009D01*
X98941904Y-73074819D02*
X98370476Y-73074819D01*
X98656190Y-74074819D02*
X98656190Y-73074819D01*
X97513333Y-74074819D02*
X98084761Y-74074819D01*
X97799047Y-74074819D02*
X97799047Y-73074819D01*
X97799047Y-73074819D02*
X97894285Y-73217676D01*
X97894285Y-73217676D02*
X97989523Y-73312914D01*
X97989523Y-73312914D02*
X98084761Y-73360533D01*
%TO.C,BT1*%
D11*
X112990000Y-62390000D02*
X109372000Y-62390000D01*
X112990000Y-64100000D02*
X112990000Y-62390000D01*
X112990000Y-67900000D02*
X112990000Y-69610000D01*
X109372000Y-69610000D02*
X112990000Y-69610000D01*
X106527300Y-57890000D02*
X90832700Y-57890000D01*
X102540000Y-74110000D02*
X106527300Y-74110000D01*
X100340000Y-71910000D02*
X102540000Y-74110000D01*
X97020000Y-71910000D02*
X100340000Y-71910000D01*
X97020000Y-71910000D02*
X94820000Y-74110000D01*
X90832700Y-74110000D02*
X94820000Y-74110000D01*
X87988000Y-62390000D02*
X84370000Y-62390000D01*
X84370000Y-64100000D02*
X84370000Y-62390000D01*
X84370000Y-67900000D02*
X84370000Y-69610000D01*
X84370000Y-69610000D02*
X87988000Y-69610000D01*
X106525371Y-57888211D02*
G75*
G02*
X109371999Y-62390000I-7845391J-8111799D01*
G01*
X109372000Y-69610000D02*
G75*
G02*
X106525371Y-74111789I-10691995J3609996D01*
G01*
X87988000Y-62390000D02*
G75*
G02*
X90834629Y-57888211I10692000J-3610000D01*
G01*
X90834629Y-74111789D02*
G75*
G02*
X87988000Y-69610000I7845391J8111801D01*
G01*
%TD*%
M02*
